<svg xmlns="http://www.w3.org/2000/svg" viewBox="0 0 720 360" width="100%" height="auto" font-family="'IBM Plex Mono', ui-monospace, monospace" style="display:block;">
    
      <line x1="60" x2="690" y1="250" y2="250" stroke="#d6d2bf" stroke-dasharray="2 4" />
      <text x="52" y="254" text-anchor="end" fill="#6b6960" font-size="11">0%</text>
    
      <line x1="60" x2="690" y1="193.5" y2="193.5" stroke="#d6d2bf" stroke-dasharray="2 4" />
      <text x="52" y="197.5" text-anchor="end" fill="#6b6960" font-size="11">25%</text>
    
      <line x1="60" x2="690" y1="137" y2="137" stroke="#d6d2bf" stroke-dasharray="2 4" />
      <text x="52" y="141" text-anchor="end" fill="#6b6960" font-size="11">50%</text>
    
      <line x1="60" x2="690" y1="80.5" y2="80.5" stroke="#d6d2bf" stroke-dasharray="2 4" />
      <text x="52" y="84.5" text-anchor="end" fill="#6b6960" font-size="11">75%</text>
    
      <line x1="60" x2="690" y1="24" y2="24" stroke="#d6d2bf" stroke-dasharray="2 4" />
      <text x="52" y="28" text-anchor="end" fill="#6b6960" font-size="11">100%</text>
    
    <circle cx="76.25" cy="57.900000000000006" r="4.5" fill="#6a9bcc" stroke="#141413" stroke-width="0.5" opacity="0.85" /><circle cx="86.25" cy="46.599999999999994" r="4.5" fill="#788c5d" stroke="#141413" stroke-width="0.5" opacity="0.85" /><circle cx="96.25" cy="35.30000000000001" r="4.5" fill="#d97757" stroke="#141413" stroke-width="0.5" opacity="0.85" /><text x="86.25" y="264" text-anchor="end" fill="#6b6960" font-size="9" transform="rotate(-32 86.25 264)">Why does π appear in the Gauss…</text><circle cx="128.75" cy="80.5" r="4.5" fill="#6a9bcc" stroke="#141413" stroke-width="0.5" opacity="0.85" /><circle cx="138.75" cy="46.599999999999994" r="4.5" fill="#788c5d" stroke="#141413" stroke-width="0.5" opacity="0.85" /><circle cx="148.75" cy="35.30000000000001" r="4.5" fill="#d97757" stroke="#141413" stroke-width="0.5" opacity="0.85" /><text x="138.75" y="264" text-anchor="end" fill="#6b6960" font-size="9" transform="rotate(-32 138.75 264)">What is the physical meaning o…</text><circle cx="181.25" cy="57.900000000000006" r="4.5" fill="#6a9bcc" stroke="#141413" stroke-width="0.5" opacity="0.85" /><circle cx="191.25" cy="46.599999999999994" r="4.5" fill="#788c5d" stroke="#141413" stroke-width="0.5" opacity="0.85" /><circle cx="201.25" cy="35.30000000000001" r="4.5" fill="#d97757" stroke="#141413" stroke-width="0.5" opacity="0.85" /><text x="191.25" y="264" text-anchor="end" fill="#6b6960" font-size="9" transform="rotate(-32 191.25 264)">Why does the central limit the…</text><circle cx="233.75" cy="57.900000000000006" r="4.5" fill="#6a9bcc" stroke="#141413" stroke-width="0.5" opacity="0.85" /><circle cx="243.75" cy="46.599999999999994" r="4.5" fill="#788c5d" stroke="#141413" stroke-width="0.5" opacity="0.85" /><circle cx="253.75" cy="35.30000000000001" r="4.5" fill="#d97757" stroke="#141413" stroke-width="0.5" opacity="0.85" /><text x="243.75" y="264" text-anchor="end" fill="#6b6960" font-size="9" transform="rotate(-32 243.75 264)">What is the relationship betwe…</text><circle cx="286.25" cy="80.5" r="4.5" fill="#6a9bcc" stroke="#141413" stroke-width="0.5" opacity="0.85" /><circle cx="296.25" cy="69.19999999999999" r="4.5" fill="#788c5d" stroke="#141413" stroke-width="0.5" opacity="0.85" /><circle cx="306.25" cy="69.19999999999999" r="4.5" fill="#d97757" stroke="#141413" stroke-width="0.5" opacity="0.85" /><text x="296.25" y="264" text-anchor="end" fill="#6b6960" font-size="9" transform="rotate(-32 296.25 264)">How do power laws emerge in se…</text><circle cx="338.75" cy="80.5" r="4.5" fill="#6a9bcc" stroke="#141413" stroke-width="0.5" opacity="0.85" /><circle cx="348.75" cy="69.19999999999999" r="4.5" fill="#788c5d" stroke="#141413" stroke-width="0.5" opacity="0.85" /><circle cx="358.75" cy="69.19999999999999" r="4.5" fill="#d97757" stroke="#141413" stroke-width="0.5" opacity="0.85" /><text x="348.75" y="264" text-anchor="end" fill="#6b6960" font-size="9" transform="rotate(-32 348.75 264)">What is the role of network to…</text><circle cx="391.25" cy="57.900000000000006" r="4.5" fill="#6a9bcc" stroke="#141413" stroke-width="0.5" opacity="0.85" /><circle cx="401.25" cy="69.19999999999999" r="4.5" fill="#788c5d" stroke="#141413" stroke-width="0.5" opacity="0.85" /><circle cx="411.25" cy="35.30000000000001" r="4.5" fill="#d97757" stroke="#141413" stroke-width="0.5" opacity="0.85" /><text x="401.25" y="264" text-anchor="end" fill="#6b6960" font-size="9" transform="rotate(-32 401.25 264)">Why does the Lotka-Volterra mo…</text><circle cx="443.75" cy="80.5" r="4.5" fill="#6a9bcc" stroke="#141413" stroke-width="0.5" opacity="0.85" /><circle cx="453.75" cy="69.19999999999999" r="4.5" fill="#788c5d" stroke="#141413" stroke-width="0.5" opacity="0.85" /><circle cx="463.75" cy="69.19999999999999" r="4.5" fill="#d97757" stroke="#141413" stroke-width="0.5" opacity="0.85" /><text x="453.75" y="264" text-anchor="end" fill="#6b6960" font-size="9" transform="rotate(-32 453.75 264)">Why do allometric scaling laws…</text><circle cx="496.25" cy="80.5" r="4.5" fill="#6a9bcc" stroke="#141413" stroke-width="0.5" opacity="0.85" /><circle cx="506.25" cy="69.19999999999999" r="4.5" fill="#788c5d" stroke="#141413" stroke-width="0.5" opacity="0.85" /><circle cx="516.25" cy="69.19999999999999" r="4.5" fill="#d97757" stroke="#141413" stroke-width="0.5" opacity="0.85" /><text x="506.25" y="264" text-anchor="end" fill="#6b6960" font-size="9" transform="rotate(-32 506.25 264)">What is the neural basis of fl…</text><circle cx="548.75" cy="80.5" r="4.5" fill="#6a9bcc" stroke="#141413" stroke-width="0.5" opacity="0.85" /><circle cx="558.75" cy="69.19999999999999" r="4.5" fill="#788c5d" stroke="#141413" stroke-width="0.5" opacity="0.85" /><circle cx="568.75" cy="69.19999999999999" r="4.5" fill="#d97757" stroke="#141413" stroke-width="0.5" opacity="0.85" /><text x="558.75" y="264" text-anchor="end" fill="#6b6960" font-size="9" transform="rotate(-32 558.75 264)">What is the predictive coding …</text><circle cx="601.25" cy="80.5" r="4.5" fill="#6a9bcc" stroke="#141413" stroke-width="0.5" opacity="0.85" /><circle cx="611.25" cy="114.4" r="4.5" fill="#788c5d" stroke="#141413" stroke-width="0.5" opacity="0.85" /><circle cx="621.25" cy="69.19999999999999" r="4.5" fill="#d97757" stroke="#141413" stroke-width="0.5" opacity="0.85" /><text x="611.25" y="264" text-anchor="end" fill="#6b6960" font-size="9" transform="rotate(-32 611.25 264)">What is the demarcation proble…</text><circle cx="653.75" cy="103.1" r="4.5" fill="#6a9bcc" stroke="#141413" stroke-width="0.5" opacity="0.85" /><circle cx="663.75" cy="69.19999999999999" r="4.5" fill="#788c5d" stroke="#141413" stroke-width="0.5" opacity="0.85" /><circle cx="673.75" cy="69.19999999999999" r="4.5" fill="#d97757" stroke="#141413" stroke-width="0.5" opacity="0.85" /><text x="663.75" y="264" text-anchor="end" fill="#6b6960" font-size="9" transform="rotate(-32 663.75 264)">Why do flood myths appear acro…</text>
    <line x1="60" x2="60" y1="24" y2="250" stroke="#141413" />
    <line x1="60" x2="690" y1="250" y2="250" stroke="#141413" />
    <g transform="translate(68,28)">
      
        <circle cx="6" cy="0" r="5" fill="#6a9bcc" />
        <text x="16" y="4" fill="#3d3a32" font-size="10">4B</text>
      
        <circle cx="96" cy="0" r="5" fill="#788c5d" />
        <text x="106" y="4" fill="#3d3a32" font-size="10">8B</text>
      
        <circle cx="186" cy="0" r="5" fill="#d97757" />
        <text x="196" y="4" fill="#3d3a32" font-size="10">70B</text>
      
    </g>
    <text x="24" y="137" fill="#6b6960" font-size="11" transform="rotate(-90 24 137)" text-anchor="middle">self-reported confidence</text>
  </svg>